<svg xmlns="http://www.w3.org/2000/svg" viewBox="0 0 200 64"><defs><style>.a{fill:#fff;}.b{fill:gray;}.c{fill:#ff922e;}.d{fill:#36b3c9;}.e{fill:none;stroke:#fff;stroke-miterlimit:10;stroke-width:2px;}</style></defs><title>logo2</title><rect class="a" width="200" height="64"/><path class="b" d="M79.292,40.738a1.357,1.357,0,0,1-1.088.578,2.766,2.766,0,0,1-2.176-.952,29.1,29.1,0,0,1-3.264-4.454c-1.564-2.413-2.55-3.943-3.026-4.623-2.175-2.889-4.045-4.351-5.677-4.351-1.734,0-3.331,1.292-4.828,3.842a1.43,1.43,0,0,1-1.291.748c-.884,0-1.292-.51-1.292-1.531a2.987,2.987,0,0,1,.612-1.326c2.243-3.059,4.419-4.623,6.595-4.623,2.72,0,5.542,2.074,8.533,6.154.85,1.223,1.972,2.923,3.332,5.1A32.753,32.753,0,0,0,77.83,38.29c.272-.033.476-.067.612-.067.884,0,1.359.509,1.359,1.529A1.619,1.619,0,0,1,79.292,40.738Z"/><path class="b" d="M88.474,40.33c-.443.714-.918,1.054-1.462,1.054a1.143,1.143,0,0,1-.884-.408,1.306,1.306,0,0,1-.374-.952,2.614,2.614,0,0,1,.544-1.36,52.972,52.972,0,0,0,2.821-4.691,22.678,22.678,0,0,0,2.074-5.779,8.348,8.348,0,0,1-.068-1.088,7.019,7.019,0,0,1-.272-1.836c0-1.632.476-2.482,1.5-2.482.782,0,1.291.579,1.53,1.7A18.293,18.293,0,0,1,94.048,27C94.048,30.3,92.179,34.755,88.474,40.33Zm19.751-4.453A15.782,15.782,0,0,1,104.86,38.7a7.926,7.926,0,0,1-4.046,1.36,3.6,3.6,0,0,1-2.992-1.427A4.874,4.874,0,0,1,96.8,35.5a35.445,35.445,0,0,1,1.02-6.221c.272-1.258.714-3.094,1.326-5.474a1.39,1.39,0,0,1,1.428-1.155,1.2,1.2,0,0,1,1.36,1.325,3.99,3.99,0,0,1-.2.884c-1.462,5.406-2.176,8.872-2.176,10.368,0,1.327.374,1.972,1.19,1.972a5.824,5.824,0,0,0,3.3-1.292,12.6,12.6,0,0,0,2.719-2.651,1.2,1.2,0,0,1,1.224-.714,1.162,1.162,0,0,1,1.326,1.292A3.529,3.529,0,0,1,108.225,35.877Z"/><path class="b" d="M137.126,30.948q-6.834,9.126-13.837,11.762a12.242,12.242,0,0,1-3.2.918c-1.053,0-1.563-.476-1.563-1.428a1.747,1.747,0,0,1,.816-1.5,2.194,2.194,0,0,1,1.291-.442h1.021c3.773-.952,8.226-4.658,13.326-11.049a1.693,1.693,0,0,1,1.19-.781,1.339,1.339,0,0,1,.986.441,1.667,1.667,0,0,1,.374,1.055A1.637,1.637,0,0,1,137.126,30.948Zm-9.214-.647a1.18,1.18,0,0,1-.85.408c-.306,0-1.326-.1-3.094-.339-1.836,0-2.958-.205-3.365-.68a1.771,1.771,0,0,1-.442-1.361,1.1,1.1,0,0,1,.442-.815,1.2,1.2,0,0,1,.884-.408c.476,0,2.38.272,5.677.782a1.474,1.474,0,0,1,.748,2.413Zm.306-5.4a1.494,1.494,0,0,1-.883-.476c-.273-.2-1.122-.782-2.55-1.666a6.64,6.64,0,0,1-2.074-.34,1.449,1.449,0,0,1-1.054-1.461c0-.953.441-1.462,1.393-1.462a8.667,8.667,0,0,1,6.154,2.923,1.488,1.488,0,0,1,.509,1.088C129.713,24.454,129.2,24.9,128.218,24.9Z"/><path class="b" d="M164.462,32.885c-.2,0-1.939-.136-5.236-.34-3.944-.2-6.29-.34-7.071-.34a39.216,39.216,0,0,0-5.032.306,3.294,3.294,0,0,1-1.394.477,7.841,7.841,0,0,1-1.87.17,2.016,2.016,0,0,1-1.5-.579,1.591,1.591,0,0,1-.647-1.257c0-.544.817-.952,2.449-1.292a38.045,38.045,0,0,1,6.934-.51c3.332,0,6.7.17,10.1.475a7.183,7.183,0,0,1,1.019-.135,4.251,4.251,0,0,1,2.21.611,1.757,1.757,0,0,1,.986,1.5C165.413,32.511,165.073,32.818,164.462,32.885Z"/><path class="b" d="M185.643,33.531a1.11,1.11,0,0,1-.849.442,1.729,1.729,0,0,1-.884-.272c-.374-.2-.714-.373-1.054-.578-.952-.442-2.311-1.087-4.012-1.937,0,2.311-.2,6.084-.578,11.388-.136,1.529-.645,2.312-1.563,2.312-.952,0-1.4-.51-1.4-1.5a2.979,2.979,0,0,1,.2-.782c.17-1.088.34-3.842.544-8.261.17-4.386.273-8.057.273-11.015,0-.952-.069-2-.17-3.162a3.2,3.2,0,0,1-.136-.714,1.312,1.312,0,0,1,.373-.952,1.183,1.183,0,0,1,.885-.441,1.452,1.452,0,0,1,1.462,1.156,27.032,27.032,0,0,1,.237,4.555c0,1.088-.034,2.414-.1,4.012a33.19,33.19,0,0,0,5.813,2.958,1.934,1.934,0,0,1,1.292,1.8A1.571,1.571,0,0,1,185.643,33.531Z"/><circle class="c" cx="23" cy="32" r="20"/><circle class="d" cx="23" cy="32" r="18.182"/><path class="d" d="M16.768,45.094l-.154-.052C16.479,45,13.3,43.887,13.3,39.582L13.233,18.47H31.9v19.3h4.421l.187.76c.448,1.82.368,5.525-3.14,6.528l-.135.038Z"/><path class="a" d="M30.9,19.47v19.3h4.637S36.6,43.091,33.1,44.093H16.931S14.3,43.216,14.3,39.582L14.236,19.47H30.9m2-2H12.23l.006,2.006L12.3,39.589c0,4,2.514,5.907,4,6.4l.308.1H33.375l.27-.077a5.373,5.373,0,0,0,3.968-4.678,8.706,8.706,0,0,0-.132-3.049l-.375-1.521H32.9V17.47Z"/><path class="a" d="M18.362,37.409V23.86s-1.855-2.823-2.017,8.71l.968.081v4.758Z"/><ellipse class="a" cx="27.546" cy="26.304" rx="2.218" ry="2.863"/><polyline class="a" points="28.07 29.046 28.07 32.554 28.07 37.555 27.022 37.555 27.022 32.796 27.022 29.046"/><path class="a" d="M24.248,23.683v4.679a.643.643,0,0,1-.643.644H20.86a.644.644,0,0,1-.644-.644V23.683h.927v1.592a.242.242,0,0,0,.242.242h.152a.242.242,0,0,0,.242-.242V23.683h.906v1.592a.242.242,0,0,0,.242.242h.152a.242.242,0,0,0,.242-.242V23.683Z"/><polyline class="a" points="22.823 28.925 22.797 32.554 22.797 37.555 21.748 37.555 21.748 32.796 21.748 29.018"/><path class="e" d="M35.592,38.148l-13.94-.022s.14,5.816-3.272,6.567"/></svg>