<svg xmlns="http://www.w3.org/2000/svg" viewBox="0 0 190.484 55"><defs><style>.a{fill:gray;}.b{fill:#ff922e;}.c{fill:#36b3c9;}.d{fill:#fff;}.e{fill:none;stroke:#fff;stroke-miterlimit:10;stroke-width:2px;}</style></defs><title>logo</title><path class="a" d="M83.792,36.238a1.357,1.357,0,0,1-1.088.578,2.766,2.766,0,0,1-2.176-.952,29.1,29.1,0,0,1-3.264-4.454C75.7,29,74.714,27.467,74.238,26.787c-2.175-2.889-4.045-4.351-5.677-4.351-1.734,0-3.331,1.292-4.828,3.842a1.43,1.43,0,0,1-1.291.748c-.884,0-1.292-.51-1.292-1.531a2.987,2.987,0,0,1,.612-1.326c2.243-3.059,4.419-4.623,6.595-4.623,2.72,0,5.542,2.074,8.533,6.154.85,1.223,1.972,2.923,3.332,5.1A32.753,32.753,0,0,0,82.33,33.79c.272-.033.476-.067.612-.067.884,0,1.359.509,1.359,1.529A1.619,1.619,0,0,1,83.792,36.238Z"/><path class="a" d="M92.974,35.83c-.443.714-.918,1.054-1.462,1.054a1.143,1.143,0,0,1-.884-.408,1.306,1.306,0,0,1-.374-.952,2.614,2.614,0,0,1,.544-1.36,52.972,52.972,0,0,0,2.821-4.691,22.678,22.678,0,0,0,2.074-5.779,8.348,8.348,0,0,1-.068-1.088,7.019,7.019,0,0,1-.272-1.836c0-1.632.476-2.482,1.5-2.482.782,0,1.291.579,1.53,1.7a18.293,18.293,0,0,1,.169,2.515C98.548,25.8,96.679,30.255,92.974,35.83Zm19.751-4.453A15.782,15.782,0,0,1,109.36,34.2a7.926,7.926,0,0,1-4.046,1.36,3.6,3.6,0,0,1-2.992-1.427A4.874,4.874,0,0,1,101.3,31a35.445,35.445,0,0,1,1.02-6.221c.272-1.258.714-3.094,1.326-5.474a1.39,1.39,0,0,1,1.428-1.155,1.2,1.2,0,0,1,1.36,1.325,3.99,3.99,0,0,1-.2.884c-1.462,5.406-2.176,8.872-2.176,10.368,0,1.327.374,1.972,1.19,1.972a5.824,5.824,0,0,0,3.3-1.292,12.6,12.6,0,0,0,2.719-2.651,1.2,1.2,0,0,1,1.224-.714,1.162,1.162,0,0,1,1.326,1.292A3.529,3.529,0,0,1,112.725,31.377Z"/><path class="a" d="M141.626,26.448q-6.834,9.126-13.837,11.762a12.242,12.242,0,0,1-3.2.918c-1.053,0-1.563-.476-1.563-1.428a1.747,1.747,0,0,1,.816-1.5,2.194,2.194,0,0,1,1.291-.442h1.021c3.773-.952,8.226-4.658,13.326-11.049a1.693,1.693,0,0,1,1.19-.781,1.339,1.339,0,0,1,.986.441,1.667,1.667,0,0,1,.374,1.055A1.637,1.637,0,0,1,141.626,26.448Zm-9.214-.647a1.18,1.18,0,0,1-.85.408c-.306,0-1.326-.1-3.094-.339-1.836,0-2.958-.205-3.365-.68a1.771,1.771,0,0,1-.442-1.361,1.1,1.1,0,0,1,.442-.815,1.2,1.2,0,0,1,.884-.408c.475,0,2.38.272,5.677.782a1.242,1.242,0,0,1,1.122,1.428A1.252,1.252,0,0,1,132.412,25.8Zm.306-5.4a1.494,1.494,0,0,1-.883-.476c-.273-.2-1.123-.782-2.55-1.666a6.64,6.64,0,0,1-2.074-.34,1.449,1.449,0,0,1-1.054-1.461c0-.953.441-1.462,1.393-1.462a8.667,8.667,0,0,1,6.154,2.923A1.488,1.488,0,0,1,134.213,19C134.213,19.954,133.7,20.4,132.718,20.4Z"/><path class="a" d="M168.962,28.385c-.2,0-1.939-.136-5.236-.34-3.944-.2-6.29-.34-7.071-.34a39.216,39.216,0,0,0-5.032.306,3.294,3.294,0,0,1-1.394.477,7.841,7.841,0,0,1-1.87.17,2.016,2.016,0,0,1-1.5-.579,1.591,1.591,0,0,1-.647-1.257c0-.544.817-.952,2.449-1.292a38.045,38.045,0,0,1,6.934-.51c3.332,0,6.7.17,10.1.475a7.183,7.183,0,0,1,1.019-.135,4.251,4.251,0,0,1,2.21.611,1.757,1.757,0,0,1,.986,1.5C169.913,28.011,169.573,28.318,168.962,28.385Z"/><path class="a" d="M190.143,29.031a1.11,1.11,0,0,1-.849.442,1.729,1.729,0,0,1-.884-.272c-.374-.2-.714-.373-1.054-.578-.952-.442-2.311-1.087-4.012-1.937,0,2.311-.2,6.084-.578,11.388-.136,1.529-.645,2.312-1.563,2.312-.952,0-1.4-.51-1.4-1.5a2.979,2.979,0,0,1,.2-.782c.17-1.088.34-3.842.544-8.261.17-4.386.273-8.057.273-11.015,0-.952-.069-2-.17-3.162a3.2,3.2,0,0,1-.136-.714A1.312,1.312,0,0,1,180.9,14a1.183,1.183,0,0,1,.885-.441,1.452,1.452,0,0,1,1.462,1.156,27.032,27.032,0,0,1,.237,4.555c0,1.088-.034,2.414-.1,4.012a33.19,33.19,0,0,0,5.813,2.958,1.934,1.934,0,0,1,1.292,1.8A1.571,1.571,0,0,1,190.143,29.031Z"/><circle class="b" cx="27.5" cy="27.5" r="27.5"/><circle class="c" cx="27.5" cy="27.5" r="25"/><path class="c" d="M18.992,45.129l-.154-.052c-.175-.059-4.3-1.5-4.3-7.151L14.447,9.271H39.366V35.806h6.159l.187.76c.586,2.38.493,7.224-4.056,8.525l-.135.038Z"/><path class="d" d="M38.366,10.272V36.806h6.375s1.465,5.944-3.36,7.322H19.154s-3.618-1.206-3.618-6.2L15.45,10.272H38.366m2-2H13.444l.006,2.006.086,27.654c0,6.359,4.782,8.026,4.986,8.094l.308.1H41.661l.27-.076a6.676,6.676,0,0,0,4.919-5.819,11.149,11.149,0,0,0-.167-3.906l-.375-1.521H40.366V8.272Z"/><path class="d" d="M21.122,34.937V16.307s-2.55-3.881-2.772,11.977l1.331.111v6.542Z"/><ellipse class="d" cx="33.75" cy="19.668" rx="3.05" ry="3.937"/><polyline class="d" points="34.471 23.438 34.471 28.262 34.471 35.137 33.03 35.137 33.03 28.595 33.03 23.438"/><path class="d" d="M29.217,16.064V22.5a.885.885,0,0,1-.885.885H24.557a.885.885,0,0,1-.885-.885V16.064h1.275v2.189a.332.332,0,0,0,.333.332h.208a.333.333,0,0,0,.333-.332V16.064h1.246v2.189a.333.333,0,0,0,.333.332h.209a.331.331,0,0,0,.332-.332V16.064Z"/><polyline class="d" points="27.257 23.272 27.221 28.262 27.221 35.137 25.779 35.137 25.779 28.595 25.779 23.4"/><path class="e" d="M44.814,35.954l-19.167-.031s.192,8-4.5,9.031"/></svg>