<svg xmlns="http://www.w3.org/2000/svg" viewBox="0 0 200 50"><defs><style>.a{fill:#fff;}.b{fill:#36b3c9;}.c{fill:#ff922e;}</style></defs><title>logo5</title><rect class="a" width="200" height="50"/><path class="b" d="M47.5869,43.9048c-3.08,0-5.039-1.44-5.999-4.6L35.2686,18.9087C34.1885,15.4692,32.39,14.15,29.67,14.15H24.4707c-2.3994,0-4.0391.92-4.84,4.2793L17.0322,37.106h-3.6l2.8389-19.7168c.6806-4.7588,3.72-6.6788,7.6787-6.6788h5.84c4.7989,0,7.3184,2.2793,8.6377,6.5987l6.3594,20.5566c.6,1.92,1.4395,2.56,3.0391,2.56h1.52v3.48Z"/><path class="b" d="M51.8467,43.6157V41.16c2.43-.4326,4.0762-2.2676,4.0762-8.0987V20.8882h2.375V33.2231C58.2979,40.1606,55.9492,43.21,51.8467,43.6157ZM67.7188,43.4H64.3174V20.8882h2.375V40.9976h1.2148c3.7246,0,5.9385-2.834,5.9385-7.7471V27.3657h2.375v5.8574C76.2207,40.188,73.09,43.4,67.7188,43.4Z"/><path class="b" d="M99.1982,27.4468c-.0273,1.2148-.0273.9179-.0537,1.62C98.7119,38.3794,93.3408,43.4,83.8936,43.4h-6.667v-2.376H84.001c8.3955,0,12.4707-4.6689,12.7412-11.876.0264-.8369.0264-.4863.0537-1.9169.0811-3.1846,1.4033-5.2637,3.8867-5.5606v2.4834C99.6035,24.3433,99.252,25.8276,99.1982,27.4468ZM77.8467,24.1812V21.9673H88.6445v2.2139Zm0,7.7734V29.7417H88.6445v2.2129Z"/><path class="b" d="M101.7148,33.4663V30.8755h21.0274v2.5908Z"/><path class="b" d="M135.3,34.8433a13.0952,13.0952,0,0,1-8.584-2.6993V43.4H124.26V20.8882h2.456v6.7744c0,2.8613,4.3731,4.7783,8.584,4.7783h8.1514v2.4024Z"/><path class="c" d="M46.9766,15.6377a4.16,4.16,0,0,1-4.42,3.4033h-1.791V11.5234h.792v6.7071h1.0987c2.2324,0,3.15-1.2061,3.6728-3.0332a1.8116,1.8116,0,0,1,1.7647-1.54v.8379C47.499,14.4951,47.166,14.9355,46.9766,15.6377Z"/><path class="c" d="M56.418,13.7119c-.0078.4043-.0078.3057-.0176.54-.1445,3.1054-1.9356,4.78-5.0859,4.78H49.09V18.24h2.26c2.8008,0,4.16-1.5576,4.25-3.9619.0088-.2783.0088-.1621.0176-.6387.0273-1.0625.4687-1.7558,1.2969-1.8544v.8281C56.5537,12.6758,56.4365,13.1709,56.418,13.7119Zm-7.1211-1.09v-.7383h3.6015v.7383Zm0,2.5927v-.7382h3.6015v.7382Z"/><path class="c" d="M57.9727,15.7188v-.8643h7.0136v.8643Z"/><path class="c" d="M70.9707,16.1777a4.371,4.371,0,0,1-2.8633-.8994v3.7539h-.8193V11.5234h.8193v2.26c0,.9551,1.459,1.5938,2.8633,1.5938H73.69v.8007Z"/><path class="c" d="M79.4219,19.1045c-2.4492,0-3.6289-1.1524-3.6289-3.2686a3.5921,3.5921,0,0,1,1.8457-3.0517H74.8213v-.8008h5.9238v.8008h-.874A3.2061,3.2061,0,0,0,76.6035,15.8c0,1.6748.9629,2.4941,2.791,2.4941h2.4668v.8106Zm1.7187-7.3106V11.29h1.8008v.5039Zm0,.9092V12.208h1.8008v.4951Z"/><path class="c" d="M88.16,16.6738v1.4131c0,.7383-.2159,1.1524-1.1426,1.1524H85.36v-.7569h1.45c.4678,0,.5489-.1709.5489-.5576v-1.251H83.7041v-.7295h3.6553V14.54H83.9561v-.7295h3.4033V12.334c-.9365.0449-1.98.0449-3.1963.0449v-.72a31.5133,31.5133,0,0,0,7.1933-.5225v.7383a21.2954,21.2954,0,0,1-3.1962.4229v1.5126h3.4121V14.54H88.16v1.4043h3.6552v.7295Z"/><path class="c" d="M95.2871,12.4512v.7656h1.3965v3.7539H95.2871v.7832h1.45v.6484h-1.45v.837h-.6933v-.837H93.0645v-.6484h1.5293v-.7832H93.208V13.2168h1.3858v-.7656H93.0645v-.64h1.5293v-.6748h.6933v.6748h1.4863v.64Zm-.63,1.3955h-.873v.9717h.873Zm0,1.5215h-.873v.9629h.873Zm1.458-1.5215h-.8818v.9717h.8818Zm0,1.5215h-.8818v.9629h.8818Zm.7383,3.7627v-.7022H98.627v-1.206H97.0879v-.6846H98.627V15.4492H99.41v1.0889h1.5136v.6846H99.41v1.206h1.7656v.7022Zm2.2422-4.5547a5.0173,5.0173,0,0,1-2.0078.7285v-.7285a4.1279,4.1279,0,0,0,1.4316-.45,5.1553,5.1553,0,0,1-1.1972-1.711h.8007a4.0541,4.0541,0,0,0,.9727,1.3057,3.6851,3.6851,0,0,0,1.0625-1.72h-3.07v-.7022h3.8535v.6573a4.3294,4.3294,0,0,1-1.26,2.17,3.7773,3.7773,0,0,0,1.4942.44v.7383A4.4212,4.4212,0,0,1,99.0957,14.5762Z"/><path class="c" d="M102.6934,19.1494V11.416h.8017v7.7334Zm3.4755-.27c-1.2695,0-1.8994-.6934-1.8994-1.6025,0-.9453.585-1.458,2.6114-2.4121,2.2773-1.0713,2.6279-1.4053,2.6279-1.7745,0-.2607-.1348-.4677-.6572-.4677h-4.52v-.7832h4.5821c1.0273,0,1.4238.5224,1.4238,1.18,0,.8281-.64,1.27-3.0254,2.4033-1.873.8828-2.2324,1.2422-2.2324,1.8183,0,.5049.3955.8643,1.125.8643h4.1855v.7744Z"/><path class="c" d="M112.6484,14.3232h.2159v4.9161h-.73V15.332a3.1575,3.1575,0,0,1-.7022.6846V14.9355c.667-.6474.8467-1.9355.8467-3.7988h.7656A9.9979,9.9979,0,0,1,112.6484,14.3232Zm4.1592,4.8077a3.4476,3.4476,0,0,1-2.4306-.99,3.1635,3.1635,0,0,1-1.2159,1.0987v-.792a2.3318,2.3318,0,0,0,.8018-.793,3.9456,3.9456,0,0,1-.7031-1.9531h.5586a3.3345,3.3345,0,0,0,.4238,1.3681,6.7884,6.7884,0,0,0,.3506-2.1875h-1.1973V14.207l1.0264-2.206h-1.0537v-.7022h1.7744v.6485l-1.0537,2.2236h1.0986v.6475a6.7068,6.7068,0,0,1-.5225,2.8007,2.8964,2.8964,0,0,0,2.1065.8545h2.7637v.6573Zm.8819-1.4942v.585h-.6485v-.585H115.35v-.6035h1.6914v-.792h-1.4131v-.5937h1.4131v-.8018h-1.4131V14.252h1.4131V13.45H115.34v-.5938h1.7012v-.8017h-1.4316v-.6026h1.4316v-.3154h.6485v.3154h1.6025v1.4043h.2432V13.45h-.2432v1.3955H117.69v.8018h1.6025v.5937H117.69v.792h1.8457v.6035Zm1.0449-5.582H117.69v.8017h1.0449Zm0,1.3955H117.69v.8018h1.0449Z"/><path class="c" d="M128.1035,14.7734v1.27H125.501v2.26a.8636.8636,0,0,1-.9717.9366h-.666v-.6661a5.8854,5.8854,0,0,1-2.125.6661V18.6a4.879,4.879,0,0,0,2.52-.999v.7021a2.1136,2.1136,0,0,1-.3233.2256h.4317a.3394.3394,0,0,0,.3594-.3877V16.043H122.09v-.5762h2.6368v-.6934H121.666v-.5488h3.0606v-.7021H122.09v-.5674h2.6368v-.6387h-3.1778v3.4658c0,2.0254-.2793,2.8272-1.125,3.4746V17.9785c.3145-.3955.36-.873.36-2.2236V11.6318h3.5732v-.4951h.8106v.4951h3.3672v.6846H125.501v.6387h2.6025v1.27h.4317v.5488Zm-6.0683,2.0713v-.5674l2.2236.5225v.585Zm5.3476-3.3222H125.501v.72h1.8818Zm0,1.2421H125.501v.7022h1.8818ZM125.78,16.4209h.6484a3.7079,3.7079,0,0,0,.3242.8018l1.7823-.9541v.63l-1.4493.792a2.9465,2.9465,0,0,0,1.4493.8916v.6573A3.5941,3.5941,0,0,1,125.78,16.4209Z"/><path class="c" d="M132.3408,12.0732l.2256.99h-.7744l-.2158-.99h-.8282a2.3682,2.3682,0,0,1-.4951.7286h-.8554a4.1475,4.1475,0,0,0,.8916-1.6651h.7734c-.0264.1172-.0537.2158-.0811.3154h2.44v.6211Zm4.4932,2.962V13.9727h-6.707v.6933h6.6972v1.8721h-5.9326v.6484h6.0772v1.9444h-6.8516V15.0352h-.6934V13.3691h3.6651v-.3955h.7832v.3955h3.664v1.6661Zm-.7832.18h-5.1592v.7745h5.1592Zm.1523,2.5206h-5.3115v.8466h5.3115Zm.2071-5.6622.2168.99h-.7745l-.207-.99h-.8017a2.3327,2.3327,0,0,1-.4864.7286h-.8545a4.1267,4.1267,0,0,0,.8731-1.6651h.792a2.6978,2.6978,0,0,1-.09.3154h2.458v.6211Z"/><path class="c" d="M139.5586,18.9961h-1.1348v-.7295h1.0088V15.2061h-.9v-.7295h.9V12.0371h-1.0088v-.7383h2.7735v.7383h-1.0264v2.4395h.8369v.7295h-.8369v3.0156a2.234,2.234,0,0,0,1.0264-.45v.8193A3.1413,3.1413,0,0,1,139.5586,18.9961Zm1.8271.1435v-.6923h2.1973V17.33h-1.9541v-.6924h1.9541V15.5029h-1.9443V11.2988h4.6543v4.2041h-1.9356v1.1348h1.9356V17.33h-1.9356v1.1172h2.1787V19.14Zm2.27-7.2109h-1.333V13.1h1.333Zm0,1.7734h-1.333v1.18h1.333Zm1.9619-1.7734h-1.332V13.1h1.332Zm0,1.7734h-1.332v1.18h1.332Z"/></svg>