<svg xmlns="http://www.w3.org/2000/svg" viewBox="0 0 200 64"><defs><style>.cls-1{fill:#fff;}.cls-2{fill:#ff922e;}.cls-3{fill:#36b3c9;}.cls-4{fill:none;stroke:#fff;stroke-miterlimit:10;stroke-width:2px;}</style></defs><title>logo3</title><g id="レイヤー_2" data-name="レイヤー 2"><g id="レイヤー_1-2" data-name="レイヤー 1"><rect class="cls-1" width="200" height="64"/><circle class="cls-2" cx="23" cy="32" r="20"/><circle class="cls-3" cx="23" cy="32" r="18.182"/><path class="cls-3" d="M16.768,45.094l-.154-.052C16.479,45,13.3,43.887,13.3,39.582L13.233,18.47H31.9v19.3h4.421l.187.76c.448,1.82.368,5.525-3.14,6.528l-.135.038Z"/><path class="cls-1" d="M30.9,19.47v19.3h4.637S36.6,43.091,33.1,44.093H16.931S14.3,43.216,14.3,39.582L14.236,19.47H30.9m2-2H12.23l.006,2.006L12.3,39.589c0,4,2.514,5.907,4,6.4l.308.1H33.375l.27-.077c4.241-1.211,4.364-5.584,3.836-7.727l-.375-1.521H32.9V17.47Z"/><path class="cls-1" d="M18.362,37.409V23.86s-1.855-2.823-2.017,8.71l.968.081v4.758Z"/><ellipse class="cls-1" cx="27.546" cy="26.304" rx="2.218" ry="2.863"/><polyline class="cls-1" points="28.07 29.046 28.07 32.554 28.07 37.555 27.022 37.555 27.022 32.796 27.022 29.046"/><path class="cls-1" d="M24.248,23.683v4.679a.643.643,0,0,1-.643.644H20.86a.644.644,0,0,1-.644-.644V23.683h.927v1.592a.242.242,0,0,0,.242.242h.152a.242.242,0,0,0,.242-.242V23.683h.906v1.592a.242.242,0,0,0,.242.242h.152a.242.242,0,0,0,.242-.242V23.683Z"/><polyline class="cls-1" points="22.823 28.925 22.797 32.554 22.797 37.555 21.748 37.555 21.748 32.796 21.748 29.018"/><path class="cls-4" d="M35.592,38.148l-13.94-.022s.14,5.816-3.272,6.567"/><path class="cls-3" d="M82.254,42.174a3.291,3.291,0,0,1-3.449-2.645L75.172,27.8c-.621-1.977-1.656-2.736-3.22-2.736H68.963c-1.38,0-2.322.528-2.782,2.46L64.686,38.265h-2.07l1.633-11.337a4.07,4.07,0,0,1,4.415-3.84h3.357c2.76,0,4.208,1.311,4.967,3.794L80.645,38.7c.344,1.1.828,1.472,1.748,1.472h.873v2Z"/><path class="cls-3" d="M85.019,42.4V40.311c2.069-.369,3.472-1.932,3.472-6.9V23.042h2.024V33.55C90.515,39.46,88.514,42.059,85.019,42.4ZM98.54,42.22h-2.9V23.042h2.023V40.173H98.7c3.174,0,5.06-2.414,5.06-6.6V28.561h2.023V33.55C105.783,39.483,103.115,42.22,98.54,42.22Z"/><path class="cls-3" d="M127.2,28.629c-.023,1.036-.023.783-.046,1.38-.368,7.933-4.944,12.211-12.992,12.211h-5.679V40.2h5.771c7.151,0,10.624-3.977,10.854-10.116.023-.713.023-.414.045-1.633.07-2.714,1.2-4.485,3.312-4.738v2.117C127.541,25.986,127.242,27.25,127.2,28.629Zm-18.189-2.782V23.961h9.2v1.886Zm0,6.623V30.584h9.2V32.47Z"/><path class="cls-3" d="M131.64,33.757V31.55h17.913v2.207Z"/><path class="cls-3" d="M162.549,34.93a11.163,11.163,0,0,1-7.313-2.3V42.22h-2.091V23.042h2.091v5.772c0,2.437,3.726,4.07,7.313,4.07h6.944V34.93Z"/></g></g></svg>