<svg xmlns="http://www.w3.org/2000/svg" viewBox="0 0 200 50"><defs><style>.a{fill:#fff;}.b{fill:#ff922e;}.c{fill:#36b3c9;}.d{fill:none;stroke:#fff;stroke-miterlimit:10;stroke-width:1.5px;}</style></defs><title>logo6</title><rect class="a" width="200" height="50"/><circle class="b" cx="27.1142" cy="25" r="20"/><circle class="c" cx="27.1142" cy="25" r="18.25"/><path class="c" d="M20.3154,38.0527,20.2,38.0142c-.1387-.0464-3.4072-1.1875-3.4072-5.6739l-.0713-21.09H36.5566V30.6943h4.9385l.1406.5708c.4649,1.8877.3926,5.7295-3.2109,6.7588l-.1006.0288Z"/><path class="a" d="M35.8069,12V31.4446h5.1s1.1716,4.7555-2.6879,5.8582H20.4377s-2.8946-.9649-2.8946-4.9623L17.4742,12H35.8069m1.5-1.5H15.9691l.0051,1.5051.0689,20.3405c0,5.0157,3.76,6.3268,3.92,6.38l.2309.077H38.4292l.202-.0577c4.1526-1.1865,4.2571-5.529,3.7323-7.6594l-.2812-1.1411H37.3069V10.5Z"/><path class="d" d="M41,31.2211l-15.3339-.0244s.5871,6.1973-3.1661,7.0244"/><path class="c" d="M88.5869,41.9048c-3.08,0-5.039-1.44-5.999-4.6L76.2686,16.9087C75.1885,13.4692,73.39,12.15,70.67,12.15H65.4707c-2.3994,0-4.0391.92-4.84,4.2793L58.0322,35.106h-3.6l2.8389-19.7168C57.9521,10.63,60.9912,8.71,64.95,8.71h5.84c4.7989,0,7.3184,2.2793,8.6377,6.5987l6.3594,20.5566c.6,1.92,1.44,2.56,3.0391,2.56h1.52v3.48Z"/><path class="c" d="M92.8467,41.6157V39.16c2.43-.4326,4.0762-2.2676,4.0762-8.0987V18.8882h2.375V31.2231C99.2979,38.1606,96.9492,41.21,92.8467,41.6157ZM108.7188,41.4h-3.4014V18.8882h2.375V38.9976h1.2148c3.7246,0,5.9385-2.834,5.9385-7.7471V25.3657h2.375v5.8574C117.2207,38.188,114.09,41.4,108.7188,41.4Z"/><path class="c" d="M140.1982,25.4468c-.0273,1.2148-.0273.9179-.0537,1.62-.4326,9.3125-5.8037,14.333-15.2509,14.333h-6.667v-2.376h6.7744c8.3955,0,12.4707-4.6689,12.7412-11.876.0264-.8369.0264-.4863.0537-1.9169.0811-3.1846,1.4033-5.2637,3.8867-5.5606v2.4834C140.6035,22.3433,140.252,23.8276,140.1982,25.4468Zm-21.3515-3.2656V19.9673h10.7978v2.2139Zm0,7.7734V27.7417h10.7978v2.2129Z"/><path class="c" d="M142.7148,31.4663V28.8755h21.0274v2.5908Z"/><path class="c" d="M176.3,32.8433a13.0952,13.0952,0,0,1-8.584-2.6993V41.4H165.26V18.8882h2.456v6.7744c0,2.8613,4.3731,4.7783,8.584,4.7783h8.1514v2.4024Z"/><path class="b" d="M87.9766,13.6377a4.16,4.16,0,0,1-4.42,3.4033h-1.791V9.5234h.792v6.7071h1.0987c2.2324,0,3.15-1.2061,3.6728-3.0332a1.8116,1.8116,0,0,1,1.7647-1.54v.8379C88.499,12.4951,88.166,12.9355,87.9766,13.6377Z"/><path class="b" d="M97.418,11.7119c-.0078.4043-.0078.3057-.0176.54-.1445,3.1054-1.9356,4.78-5.0859,4.78H90.09V16.24h2.26c2.8008,0,4.16-1.5576,4.25-3.9619.0088-.2783.0088-.1621.0176-.6387.0273-1.0625.4687-1.7558,1.2969-1.8544v.8281C97.5537,10.6758,97.4365,11.1709,97.418,11.7119Zm-7.1211-1.09V9.8838h3.6015v.7383Zm0,2.5927v-.7382h3.6015v.7382Z"/><path class="b" d="M98.9727,13.7188v-.8643h7.0136v.8643Z"/><path class="b" d="M111.9707,14.1777a4.371,4.371,0,0,1-2.8633-.8994v3.7539h-.8193V9.5234h.8193v2.26c0,.9551,1.459,1.5938,2.8633,1.5938H114.69v.8007Z"/><path class="b" d="M120.4219,17.1045c-2.4492,0-3.6289-1.1524-3.6289-3.2686a3.5921,3.5921,0,0,1,1.8457-3.0517h-2.8174V9.9834h5.9238v.8008h-.874A3.2061,3.2061,0,0,0,117.6035,13.8c0,1.6748.9629,2.4941,2.791,2.4941h2.4668v.8106Zm1.7187-7.3106V9.29h1.8008v.5039Zm0,.9092V10.208h1.8008v.4951Z"/><path class="b" d="M129.16,14.6738v1.4131c0,.7383-.2159,1.1524-1.1426,1.1524H126.36v-.7569h1.45c.4678,0,.5489-.1709.5489-.5576v-1.251h-3.6553v-.7295h3.6553V12.54h-3.4033v-.7295h3.4033V10.334c-.9365.0449-1.98.0449-3.1963.0449v-.72a31.5133,31.5133,0,0,0,7.1933-.5225V9.875a21.2954,21.2954,0,0,1-3.1962.4229v1.5126h3.4121V12.54H129.16v1.4043h3.6552v.7295Z"/><path class="b" d="M136.2871,10.4512v.7656h1.3965v3.7539h-1.3965v.7832h1.45v.6484h-1.45v.837h-.6933v-.837h-1.5293v-.6484h1.5293v-.7832H134.208V11.2168h1.3858v-.7656h-1.5293v-.64h1.5293V9.1367h.6933v.6748h1.4863v.64Zm-.63,1.3955h-.873v.9717h.873Zm0,1.5215h-.873v.9629h.873Zm1.458-1.5215h-.8818v.9717h.8818Zm0,1.5215h-.8818v.9629h.8818Zm.7383,3.7627v-.7022h1.7735v-1.206h-1.5391v-.6846h1.5391V13.4492h.7832v1.0889h1.5136v.6846H140.41v1.206h1.7656v.7022Zm2.2422-4.5547a5.0173,5.0173,0,0,1-2.0078.7285v-.7285a4.1279,4.1279,0,0,0,1.4316-.45,5.1553,5.1553,0,0,1-1.1972-1.711h.8007a4.0541,4.0541,0,0,0,.9727,1.3057,3.6851,3.6851,0,0,0,1.0625-1.72h-3.07V9.2988h3.8535v.6573a4.3294,4.3294,0,0,1-1.26,2.17,3.7773,3.7773,0,0,0,1.4942.44v.7383A4.4212,4.4212,0,0,1,140.0957,12.5762Z"/><path class="b" d="M143.6934,17.1494V9.416h.8017v7.7334Zm3.4755-.27c-1.2695,0-1.8994-.6934-1.8994-1.6025,0-.9453.585-1.458,2.6114-2.4121,2.2773-1.0713,2.6279-1.4053,2.6279-1.7745,0-.2607-.1348-.4677-.6572-.4677h-4.52V9.8389h4.5821c1.0273,0,1.4238.5224,1.4238,1.18,0,.8281-.64,1.27-3.0254,2.4033-1.873.8828-2.2324,1.2422-2.2324,1.8183,0,.5049.3955.8643,1.125.8643h4.1855v.7744Z"/><path class="b" d="M153.6484,12.3232h.2159v4.9161h-.7295V13.332a3.1575,3.1575,0,0,1-.7022.6846V12.9355c.667-.6474.8467-1.9355.8467-3.7988h.7656A9.9979,9.9979,0,0,1,153.6484,12.3232Zm4.1592,4.8077a3.4476,3.4476,0,0,1-2.4306-.99,3.1635,3.1635,0,0,1-1.2159,1.0987v-.792a2.3318,2.3318,0,0,0,.8018-.793,3.9456,3.9456,0,0,1-.7031-1.9531h.5586a3.3345,3.3345,0,0,0,.4238,1.3681,6.7884,6.7884,0,0,0,.3506-2.1875h-1.1973V12.207l1.0264-2.206h-1.0537V9.2988h1.7744v.6485l-1.0537,2.2236h1.0986v.6475a6.7068,6.7068,0,0,1-.5225,2.8007,2.8964,2.8964,0,0,0,2.1065.8545h2.7637v.6573Zm.8819-1.4942v.585h-.6485v-.585H156.35v-.6035h1.6914v-.792h-1.4131v-.5937h1.4131v-.8018h-1.4131V12.252h1.4131V11.45H156.34v-.5938h1.7012v-.8017h-1.4316V9.4521h1.4316V9.1367h.6485v.3154h1.6025v1.4043h.2432V11.45h-.2432v1.3955H158.69v.8018h1.6025v.5937H158.69v.792h1.8457v.6035Zm1.0449-5.582H158.69v.8017h1.0449Zm0,1.3955H158.69v.8018h1.0449Z"/><path class="b" d="M169.1035,12.7734v1.27H166.501v2.26a.8636.8636,0,0,1-.9717.9366h-.666v-.6661a5.8854,5.8854,0,0,1-2.125.6661V16.6a4.879,4.879,0,0,0,2.52-.999v.7021a2.1136,2.1136,0,0,1-.3233.2256h.4317a.3394.3394,0,0,0,.3594-.3877V14.043H163.09v-.5762h2.6368v-.6934H162.666v-.5488h3.0606v-.7021H163.09v-.5674h2.6368v-.6387h-3.1778v3.4658c0,2.0254-.2793,2.8272-1.125,3.4746V15.9785c.3145-.3955.36-.873.36-2.2236V9.6318h3.5732V9.1367h.8106v.4951h3.3672v.6846H166.501v.6387h2.6025v1.27h.4317v.5488Zm-6.0683,2.0713v-.5674l2.2236.5225v.585Zm5.3476-3.3222H166.501v.72h1.8818Zm0,1.2421H166.501v.7022h1.8818ZM166.78,14.4209h.6484a3.7079,3.7079,0,0,0,.3242.8018l1.7823-.9541v.63l-1.4493.792a2.9465,2.9465,0,0,0,1.4493.8916v.6573A3.5941,3.5941,0,0,1,166.78,14.4209Z"/><path class="b" d="M173.3408,10.0732l.2256.99h-.7744l-.2158-.99h-.8282a2.3682,2.3682,0,0,1-.4951.7286h-.8554a4.1475,4.1475,0,0,0,.8916-1.6651h.7734c-.0264.1172-.0537.2158-.0811.3154h2.44v.6211Zm4.4932,2.962V11.9727h-6.707v.6933h6.6972v1.8721h-5.9326v.6484h6.0772v1.9444h-6.8516V13.0352h-.6934V11.3691h3.6651v-.3955h.7832v.3955h3.664v1.6661Zm-.7832.18h-5.1592v.7745h5.1592Zm.1523,2.5206h-5.3115v.8466h5.3115Zm.2071-5.6622.2168.99h-.7745l-.207-.99h-.8017a2.3327,2.3327,0,0,1-.4864.7286h-.8545a4.1267,4.1267,0,0,0,.8731-1.6651h.792a2.6978,2.6978,0,0,1-.09.3154h2.458v.6211Z"/><path class="b" d="M180.5586,16.9961h-1.1348v-.7295h1.0088V13.2061h-.9v-.7295h.9V10.0371h-1.0088V9.2988h2.7735v.7383h-1.0264v2.4395h.8369v.7295h-.8369v3.0156a2.234,2.234,0,0,0,1.0264-.45v.8193A3.1413,3.1413,0,0,1,180.5586,16.9961Zm1.8271.1435v-.6923h2.1973V15.33h-1.9541v-.6924h1.9541V13.5029h-1.9443V9.2988h4.6543v4.2041h-1.9356v1.1348h1.9356V15.33h-1.9356v1.1172h2.1787V17.14Zm2.27-7.2109h-1.333V11.1h1.333Zm0,1.7734h-1.333v1.18h1.333Zm1.9619-1.7734h-1.332V11.1h1.332Zm0,1.7734h-1.332v1.18h1.332Z"/><path class="a" d="M21.72,30.9422V15.3129S19.58,12.0568,19.3942,25.36l1.1164.093v5.4889Z"/><ellipse class="a" cx="32.314" cy="18.1321" rx="2.5584" ry="3.3026"/><polyline class="a" points="32.919 21.295 32.919 25.342 32.919 31.11 31.709 31.11 31.709 25.621 31.709 21.295"/><path class="a" d="M28.5105,15.1086v5.3977a.7421.7421,0,0,1-.7424.7423H24.6013a.742.742,0,0,1-.7424-.7423V15.1086h1.07V16.945a.2788.2788,0,0,0,.2791.2791h.1749a.2793.2793,0,0,0,.2791-.2791V15.1086h1.0457V16.945a.2793.2793,0,0,0,.2791.2791h.1749a.2788.2788,0,0,0,.2791-.2791V15.1086Z"/><polyline class="a" points="26.867 21.156 26.836 25.342 26.836 31.11 25.626 31.11 25.626 25.621 25.626 21.263"/><path class="c" d="M25.2323,19.63h0a.4.4,0,0,1-.4-.4V15.0961h.8V19.23A.4.4,0,0,1,25.2323,19.63Z"/><path class="c" d="M27.099,19.63h0a.4.4,0,0,1-.4-.4V15.0961h.8V19.23A.4.4,0,0,1,27.099,19.63Z"/></svg>