<svg xmlns="http://www.w3.org/2000/svg" viewBox="0 0 200 64"><defs><style>.a{fill:#fff;}.b{fill:#ff922e;}.c{fill:#36b3c9;}.d{fill:none;stroke:#fff;stroke-miterlimit:10;stroke-width:2px;}</style></defs><title>logo4</title><rect class="a" width="200" height="64"/><circle class="b" cx="27" cy="32" r="22.5"/><circle class="c" cx="27" cy="32" r="20.4545"/><path class="c" d="M20.01,46.605l-.1543-.0513c-.1485-.05-3.6441-1.27-3.6441-6.0234l-.0732-23.6265H36.89v21.71h5l.1875.7607c.4942,2.0059.41,6.0908-3.4458,7.1919l-.1342.0386Z"/><path class="a" d="M35.89,17.904v21.71h5.216s1.1982,4.8635-2.749,5.9913H20.1718s-2.96-.9868-2.96-5.075L17.1409,17.904H35.89m2-2H15.1347l.0062,2.0062.07,22.6261c0,4.3589,2.72,6.43,4.328,6.9662l.3079.1026h18.79l.2693-.0769c4.5886-1.311,4.7155-6.0632,4.1415-8.3929l-.3749-1.5215H37.89V15.904Z"/><path class="a" d="M21.7819,38.0852V22.8423s-2.0868-3.1755-2.2683,9.799l1.0888.0908v5.3531Z"/><ellipse class="a" cx="32.114" cy="25.5918" rx="2.4951" ry="3.221"/><polyline class="a" points="32.704 28.677 32.704 32.624 32.704 38.249 31.524 38.249 31.524 32.896 31.524 28.677"/><path class="a" d="M28.4045,22.6431v5.2642a.7237.7237,0,0,1-.724.724H24.592a.7238.7238,0,0,1-.7241-.724V22.6431h1.0435v1.791a.2718.2718,0,0,0,.2721.2722h.1706a.2724.2724,0,0,0,.2722-.2722v-1.791h1.02v1.791a.2724.2724,0,0,0,.2722.2722h.1706a.2719.2719,0,0,0,.2722-.2722v-1.791Z"/><polyline class="a" points="26.801 28.541 26.771 32.624 26.771 38.249 25.592 38.249 25.592 32.896 25.592 28.645"/><path class="d" d="M41.1662,38.9165l-15.6824-.0249s.1573,6.5427-3.6812,7.3885"/><path class="c" d="M90.5869,47.2c-3.08,0-5.039-1.44-5.999-4.6l-6.3193-20.397c-1.08-3.4394-2.879-4.7588-5.5987-4.7588H67.4707c-2.3994,0-4.0391.92-4.84,4.2793L60.0322,40.4014h-3.6l2.8389-19.7173c.6806-4.7588,3.72-6.6787,7.6787-6.6787h5.84c4.7989,0,7.3184,2.2793,8.6377,6.5986l6.3594,20.5571c.6,1.92,1.44,2.56,3.0391,2.56h1.52V47.2Z"/><path class="c" d="M94.0049,46.8584V44.4922c2.34-.416,3.9267-2.1836,3.9267-7.8V24.9653H100.22V36.8477C100.22,43.53,97.957,46.4688,94.0049,46.8584Zm15.289-.208h-3.2763V24.9653h2.2881V44.3359h1.17c3.5879,0,5.7207-2.73,5.7207-7.4619V31.2056h2.2881v5.6421C117.4844,43.5566,114.4678,46.65,109.2939,46.65Z"/><path class="c" d="M139.09,31.2837c-.0263,1.17-.0263.8838-.0517,1.56-.416,8.9712-5.5908,13.8071-14.69,13.8071h-6.4229V44.3623h6.5264c8.0869,0,12.0127-4.498,12.2724-11.4409.0264-.8057.0264-.4678.0518-1.8457.0781-3.0684,1.3525-5.07,3.7441-5.3565v2.3916C139.48,28.2935,139.1416,29.7231,139.09,31.2837Zm-20.5664-3.1465V26.0054h10.4v2.1318Zm0,7.4888V33.4941h10.4V35.626Z"/><path class="c" d="M140.4668,37.082V34.5859h20.2549V37.082Z"/><path class="c" d="M172.8125,38.4082a12.6146,12.6146,0,0,1-8.2686-2.6V46.65h-2.3662V24.9653h2.3662v6.5264c0,2.7563,4.212,4.6021,8.2686,4.6021h7.8516v2.3144Z"/><path class="c" d="M90.5869,47.2c-3.08,0-5.039-1.44-5.999-4.6l-6.3193-20.397c-1.08-3.4394-2.879-4.7588-5.5987-4.7588H67.4707c-2.3994,0-4.0391.92-4.84,4.2793L60.0322,40.4014h-3.6l2.8389-19.7173c.6806-4.7588,3.72-6.6787,7.6787-6.6787h5.84c4.7989,0,7.3184,2.2793,8.6377,6.5986l6.3594,20.5571c.6,1.92,1.44,2.56,3.0391,2.56h1.52V47.2Z"/><path class="c" d="M94.0049,46.8584V44.4922c2.34-.416,3.9267-2.1836,3.9267-7.8V24.9653H100.22V36.8477C100.22,43.53,97.957,46.4688,94.0049,46.8584Zm15.289-.208h-3.2763V24.9653h2.2881V44.3359h1.17c3.5879,0,5.7207-2.73,5.7207-7.4619V31.2056h2.2881v5.6421C117.4844,43.5566,114.4678,46.65,109.2939,46.65Z"/><path class="c" d="M139.09,31.2837c-.0263,1.17-.0263.8838-.0517,1.56-.416,8.9712-5.5908,13.8071-14.69,13.8071h-6.4229V44.3623h6.5264c8.0869,0,12.0127-4.498,12.2724-11.4409.0264-.8057.0264-.4678.0518-1.8457.0781-3.0684,1.3525-5.07,3.7441-5.3565v2.3916C139.48,28.2935,139.1416,29.7231,139.09,31.2837Zm-20.5664-3.1465V26.0054h10.4v2.1318Zm0,7.4888V33.4941h10.4V35.626Z"/><path class="c" d="M140.4668,37.082V34.5859h20.2549V37.082Z"/><path class="c" d="M172.8125,38.4082a12.6146,12.6146,0,0,1-8.2686-2.6V46.65h-2.3662V24.9653h2.3662v6.5264c0,2.7563,4.212,4.6021,8.2686,4.6021h7.8516v2.3144Z"/><rect class="c" x="84" y="14" width="99" height="10"/><path class="a" d="M90.3477,18.9585a2.7709,2.7709,0,0,1-2.9444,2.2666H86.21V16.2178h.5278v4.4677h.7314a2.3286,2.3286,0,0,0,2.4468-2.0209,1.2063,1.2063,0,0,1,1.1753-1.0254v.5576C90.6953,18.1968,90.4736,18.4907,90.3477,18.9585Z"/><path class="a" d="M97.002,17.6748c-.0069.27-.0069.2041-.0127.36a3.0425,3.0425,0,0,1-3.3877,3.1845H92.12v-.5278H93.625a2.5265,2.5265,0,0,0,2.8311-2.6387c.0058-.186.0058-.1079.0117-.4257.0176-.7076.3115-1.1695.8633-1.2354v.5518C97.0918,16.9854,97.0137,17.3154,97.002,17.6748Zm-4.7437-.7256v-.4917h2.3989v.4917Zm0,1.7271v-.4917h2.3989v.4917Z"/><path class="a" d="M98.4014,19.0122v-.5757h4.6718v.5757Z"/><path class="a" d="M107.4238,19.3184a2.905,2.905,0,0,1-1.9062-.6v2.5009h-.5459V16.2178h.5459v1.5053c0,.6353.9707,1.0611,1.9062,1.0611h1.8116v.5342Z"/><path class="a" d="M113.418,21.2671c-1.6309,0-2.416-.7676-2.416-2.1768a2.3918,2.3918,0,0,1,1.2294-2.0332h-1.8769v-.5337H114.3v.5337h-.582a2.1357,2.1357,0,0,0-2.1768,2.0093c0,1.1152.6416,1.6611,1.8594,1.6611h1.6435v.54Zm1.1455-4.8692V16.062h1.1992v.3359Zm0,.6055v-.33h1.1992v.33Z"/><path class="a" d="M117.2109,18.083h.1436v3.2739h-.4854V18.7544a2.1019,2.1019,0,0,1-.4677.4556v-.7193a3.6572,3.6572,0,0,0,.5634-2.5307h.51A6.6836,6.6836,0,0,1,117.2109,18.083Zm2.77,3.2022a2.2991,2.2991,0,0,1-1.6191-.66,2.1053,2.1053,0,0,1-.81.7314v-.5278a1.5473,1.5473,0,0,0,.5332-.5273,2.6325,2.6325,0,0,1-.4677-1.3013h.372a2.224,2.224,0,0,0,.2823.9111,4.4917,4.4917,0,0,0,.2334-1.457h-.7969v-.45l.6836-1.4693H117.69v-.4677h1.1817V16.5L118.17,17.981h.7324v.4316a4.4537,4.4537,0,0,1-.3486,1.8647,1.9316,1.9316,0,0,0,1.4033.57h1.8409v.438Zm.5879-.9956v.39h-.4326v-.39H119.01v-.4019h1.1269V19.36h-.9414v-.3955h.9414v-.5337h-.9414v-.396h.9414V17.501h-1.1328v-.3955h1.1328v-.5337h-.9531V16.17h.9531v-.21h.4326v.21h1.0674v.9356h.1612v.3955h-.1612v.93h-1.0674v.5337h1.0674V19.36h-1.0674v.5278h1.2286V20.29Zm.6953-3.7178h-.6953v.5337h.6953Zm0,.9292h-.6953v.5337h.6953Z"/><path class="a" d="M127.6309,18.3828v.8452h-1.7334v1.5054a.5753.5753,0,0,1-.6475.6235h-.4443v-.4438a3.9116,3.9116,0,0,1-1.4151.4438v-.4257a3.2551,3.2551,0,0,0,1.68-.6656v.4678a1.4674,1.4674,0,0,1-.2158.15h.2871a.2264.2264,0,0,0,.24-.2578V19.228H123.625v-.3838h1.7568v-.4614h-2.039v-.3662h2.039v-.4673H123.625v-.3779h1.7568v-.4258h-2.1172v2.3086c0,1.3491-.1855,1.8828-.749,2.3149v-.8515c.21-.2642.2393-.5821.2393-1.4815V16.29h2.3808v-.33h.54v.33h2.2422v.456h-2.0205v.4258h1.7334v.8452h.2871v.3662Zm-4.042,1.3789v-.3774l1.4814.3476v.39Zm3.5615-2.2124h-1.2529v.48H127.15Zm0,.8272h-1.2529v.4677H127.15ZM126.083,19.48h.4326a2.4222,2.4222,0,0,0,.2158.5337l1.1866-.6358v.42l-.9649.5278a1.9693,1.9693,0,0,0,.9649.5937v.4375A2.3952,2.3952,0,0,1,126.083,19.48Z"/><path class="a" d="M130.5781,16.5835l.15.66h-.5156l-.1445-.66h-.5518a1.5768,1.5768,0,0,1-.3291.4858h-.57a2.75,2.75,0,0,0,.5937-1.1093h.5157c-.0176.0781-.0352.144-.0537.21h1.625v.4136Zm2.9922,1.9731v-.7075h-4.4668v.4614h4.461v1.2476h-3.9512V19.99h4.0478v1.2955h-4.5634V18.5566h-.462V17.4473h2.44v-.2642h.5215v.2642h2.44v1.1093Zm-.5215.12h-3.4355v.5161h3.4355Zm.1026,1.6792h-3.5381v.5639h3.5381Zm.1377-3.772.1435.66h-.5156l-.1377-.66h-.5342a1.5651,1.5651,0,0,1-.3232.4858h-.57a2.7363,2.7363,0,0,0,.582-1.1093h.5273a1.5921,1.5921,0,0,1-.06.21h1.6367v.4136Z"/><path class="a" d="M135.5107,21.1953h-.7548V20.71h.6718V18.67h-.6006v-.4858h.6006V16.56h-.6718v-.4917h1.8466V16.56h-.6836v1.625h.5577V18.67h-.5577v2.0088a1.4873,1.4873,0,0,0,.6836-.3v.5459A2.0942,2.0942,0,0,1,135.5107,21.1953Zm1.2178.0957v-.4619h1.4629v-.7432h-1.3008V19.624h1.3008v-.7558h-1.2949v-2.8h3.1006v2.8h-1.29v.7558h1.29v.4619h-1.29v.7432h1.4512v.4619Zm1.5108-4.8032h-.8868v.7793h.8868Zm0,1.1811h-.8868v.7857h.8868Zm1.3076-1.1811h-.8877v.7793h.8877Zm0,1.1811h-.8877v.7857h.8877Z"/><path class="a" d="M143.7363,21.2969h-.8457V20.77h.8037c.5811,0,.8155-.2519.8155-.7436V18.4668c0-.78-.2159-1.0918-1.0674-1.0918h-1.3076l-.2032,3.9219h-.5283l.2041-3.9219h-.6533v-.54h.6836l.042-.7973h.5273l-.042.7973h1.2413c1.205,0,1.6308.4678,1.6308,1.6553v1.5772C145.0371,20.8535,144.6533,21.2969,143.7363,21.2969Zm1.4571-4.9112v-.33h1.1689v.33Zm0,.6055v-.3237h1.1689v.3237Zm.5341,3.1724V17.333h.503v2.8306Z"/><path class="a" d="M150.1377,21.2671c-1.6309,0-2.416-.7676-2.416-2.1768a2.3917,2.3917,0,0,1,1.23-2.0332h-1.877v-.5337H151.02v.5337h-.582a2.1357,2.1357,0,0,0-2.1768,2.0093c0,1.1152.6416,1.6611,1.8594,1.6611h1.6436v.54Zm1.1455-4.8692V16.062h1.1992v.3359Zm0,.6055v-.33h1.1992v.33Z"/><path class="a" d="M157.26,18.2266l.0117,1.1816h-2.8184a.6871.6871,0,0,0-.7314.6953.6537.6537,0,0,0,.7314.6958h3.586v.4976h-3.6514A1.0791,1.0791,0,0,1,153.2,20.1216a1.1452,1.1452,0,0,1,1.1807-1.1753h2.3515l-.0068-.72h-3.28v-.4615H156.72l-.0117-.7436h-3.2627v-.4561h3.2627l-.0117-.51h.5391l.0068.51h1.1924v.4561H157.248l.0059.7436h1.1807v.4615Z"/><path class="a" d="M162.8525,21.249H160.585a1.0339,1.0339,0,0,1-1.127-1.1631,1.1338,1.1338,0,0,1,1.169-1.1338h.4023a1.0785,1.0785,0,0,1,1.14,1.1338v.6294h.7012a1.1217,1.1217,0,0,0,1.1875-1.2114,1.1584,1.1584,0,0,0-1.1992-1.2353h-1.35l.0478-1.4751h-2.0742v-.54H162.12l-.0478,1.4751h.8222a1.76,1.76,0,0,1-.042,3.52Zm-1.14-1.1694a.6422.6422,0,0,0-.6777-.6777h-.3721a.6457.6457,0,0,0-.6953.66c0,.4082.1738.6719.6357.6719h1.1094Z"/><path class="a" d="M168.791,19.24h-.9834v.27c0,1.2837-.6836,1.7094-1.9306,1.7094h-.3663v-.5278h.336c1.0615,0,1.4277-.33,1.4277-1.2412v-.7559h1.499c.833,0,1.1817-.3178,1.1817-1.1391v-.564h-4.4444v-.5337h4.9961V17.561A1.494,1.494,0,0,1,168.791,19.24Z"/><path class="a" d="M176.3691,17.1235c-.0244,0-.0546-.0063-.0839-.0063v.8276c0,2.2666-1.0616,3.28-3.5567,3.28h-.749v-.522h.7607c2.2071,0,3.0166-.8452,3.0166-2.7524v-.7793h-3.9755v-.5278h3.9941a.5913.5913,0,0,1-.0127-.1138.5847.5847,0,0,1,.6064-.6.5967.5967,0,1,1,0,1.1933Zm0-.8935a.3027.3027,0,1,0,0,.6054.3027.3027,0,0,0,0-.6054Z"/><path class="a" d="M177.98,19.15V16.3677h.5273V19.15Zm2.0088,2.0747h-1.4209v-.522H180c1.3613,0,2.0693-.5215,2.0693-2.1167V16.3677h.5274v2.2246C182.5967,20.5234,181.6377,21.2251,179.9883,21.2251Z"/></svg>